<svg width="510" height="102" viewBox="0 0 510 102" fill="none" xmlns="http://www.w3.org/2000/svg">
<path d="M201.539 41.9923C201.539 47.4453 200.849 52.4055 199.469 56.873C198.155 61.2749 196.119 65.0854 193.359 68.3046C190.666 71.5238 187.184 73.9875 182.913 75.6957C178.709 77.4039 173.748 78.2579 168.033 78.2579C162.317 78.2579 157.324 77.4039 153.053 75.6957C148.849 73.9218 145.367 71.4581 142.607 68.3046C139.914 65.0854 137.877 61.242 136.497 56.7745C135.183 52.307 134.526 47.3467 134.526 41.8938C134.526 34.6012 135.709 28.2613 138.074 22.874C140.505 17.4867 144.184 13.3149 149.111 10.3584C154.105 7.33631 160.444 5.82524 168.131 5.82524C175.752 5.82524 182.026 7.33631 186.954 10.3584C191.881 13.3149 195.527 17.5196 197.893 22.9726C200.323 28.3599 201.539 34.6998 201.539 41.9923ZM150.195 41.9923C150.195 46.9197 150.82 51.1573 152.068 54.705C153.316 58.2527 155.254 60.9792 157.882 62.8845C160.51 64.7897 163.894 65.7424 168.033 65.7424C172.303 65.7424 175.719 64.7897 178.282 62.8845C180.91 60.9792 182.815 58.2527 183.997 54.705C185.246 51.1573 185.87 46.9197 185.87 41.9923C185.87 34.5684 184.49 28.754 181.731 24.5493C178.971 20.3446 174.438 18.2423 168.131 18.2423C163.926 18.2423 160.51 19.1949 157.882 21.1002C155.254 23.0054 153.316 25.7319 152.068 29.2796C150.82 32.8274 150.195 37.0649 150.195 41.9923ZM237.006 22.4798C243.05 22.4798 247.945 24.845 251.69 29.5753C255.435 34.2399 257.307 41.1382 257.307 50.2703C257.307 56.3803 256.42 61.5376 254.646 65.7424C252.872 69.8814 250.441 73.0021 247.354 75.1044C244.266 77.2068 240.685 78.2579 236.612 78.2579C234.05 78.2579 231.816 77.9294 229.911 77.2725C228.071 76.6155 226.494 75.7614 225.18 74.7102C223.866 73.659 222.717 72.5422 221.731 71.3596H220.943C221.206 72.6079 221.403 73.9218 221.534 75.3015C221.665 76.6155 221.731 77.9294 221.731 79.2434V100.924H207.048V23.4653H218.972L221.041 30.4622H221.731C222.717 29.0168 223.899 27.7029 225.279 26.5203C226.659 25.272 228.301 24.2865 230.206 23.5639C232.177 22.8412 234.444 22.4798 237.006 22.4798ZM232.276 34.207C229.714 34.207 227.677 34.7326 226.166 35.7838C224.655 36.835 223.538 38.4446 222.815 40.6126C222.158 42.715 221.797 45.3758 221.731 48.595V50.1718C221.731 53.6538 222.06 56.6103 222.717 59.0411C223.374 61.4063 224.491 63.213 226.067 64.4612C227.644 65.7095 229.779 66.3336 232.473 66.3336C234.707 66.3336 236.546 65.7095 237.992 64.4612C239.437 63.213 240.521 61.3734 241.244 58.9426C241.966 56.5117 242.328 53.5553 242.328 50.0732C242.328 44.8174 241.506 40.8754 239.864 38.2475C238.287 35.5539 235.758 34.207 232.276 34.207ZM299.073 61.3077C299.073 64.9211 298.219 68.009 296.511 70.5712C294.802 73.0678 292.24 74.973 288.824 76.287C285.408 77.601 281.17 78.2579 276.111 78.2579C272.366 78.2579 269.147 77.9951 266.453 77.4696C263.76 77.0097 261.066 76.2213 258.373 75.1044V62.983C261.263 64.297 264.384 65.381 267.735 66.2351C271.085 67.0892 274.042 67.5162 276.604 67.5162C279.495 67.5162 281.531 67.0892 282.714 66.2351C283.962 65.381 284.586 64.2641 284.586 62.8845C284.586 61.9647 284.323 61.1435 283.798 60.4208C283.338 59.6981 282.287 58.8769 280.644 57.9571C279.002 57.0373 276.44 55.8547 272.958 54.4093C269.607 52.964 266.848 51.5515 264.68 50.1718C262.512 48.7264 260.902 47.0183 259.851 45.0473C258.8 43.0106 258.274 40.4812 258.274 37.4591C258.274 32.466 260.212 28.7212 264.088 26.2247C267.965 23.7281 273.122 22.4798 279.56 22.4798C282.911 22.4798 286.097 22.8083 289.119 23.4653C292.142 24.1223 295.262 25.2063 298.482 26.7174L294.047 37.262C292.273 36.4736 290.565 35.7838 288.922 35.1925C287.28 34.6012 285.67 34.1413 284.094 33.8128C282.582 33.4843 281.006 33.3201 279.363 33.3201C277.195 33.3201 275.553 33.6157 274.436 34.207C273.385 34.7983 272.859 35.6852 272.859 36.8678C272.859 37.7219 273.122 38.5103 273.647 39.233C274.239 39.89 275.323 40.6126 276.9 41.401C278.542 42.1894 280.94 43.2406 284.094 44.5546C287.181 45.8028 289.842 47.1168 292.076 48.4965C294.31 49.8104 296.018 51.4858 297.2 53.5224C298.449 55.4934 299.073 58.0885 299.073 61.3077Z" fill="#313131"/>
<path d="M480.443 79.7924C474.804 79.7924 470.422 78.1682 467.296 74.9199C464.231 71.6102 462.699 66.9827 462.699 61.0376C462.699 56.8085 463.435 52.8246 464.906 49.0859C466.438 45.2859 468.552 41.9456 471.249 39.0649C473.946 36.123 477.041 33.8246 480.535 32.1698C484.028 30.5149 487.767 29.6875 491.751 29.6875C497.39 29.6875 501.772 31.3423 504.898 34.652C508.024 37.9617 509.586 42.5891 509.586 48.5343C509.586 52.7634 508.82 56.7779 507.288 60.5779C505.756 64.3166 503.641 67.6263 500.944 70.5069C498.248 73.3876 495.153 75.6553 491.659 77.3102C488.165 78.965 484.427 79.7924 480.443 79.7924ZM481.178 76.2069C482.711 76.2069 484.212 75.6247 485.683 74.4602C487.215 73.2344 488.625 71.5795 489.912 69.4956C491.261 67.4118 492.456 65.0521 493.498 62.4166C494.54 59.7198 495.336 56.8698 495.888 53.8666C496.44 50.8021 496.715 47.7375 496.715 44.673C496.715 40.9343 496.225 38.1149 495.244 36.2149C494.325 34.2536 492.915 33.273 491.015 33.273C489.483 33.273 487.951 33.8859 486.419 35.1117C484.948 36.2762 483.538 37.9004 482.19 39.9843C480.902 42.0682 479.738 44.4585 478.696 47.1553C477.715 49.8521 476.919 52.7327 476.306 55.7972C475.754 58.8005 475.478 61.8037 475.478 64.8069C475.478 68.6069 475.969 71.4569 476.949 73.3569C477.93 75.2569 479.34 76.2069 481.178 76.2069Z" fill="#AE8956"/>
<path d="M440.68 79.793C437.615 79.793 435.133 79.0882 433.233 77.6785C431.394 76.2075 430.23 74.2156 429.739 71.7027C429.31 69.1898 429.678 66.3398 430.843 63.1527L437.83 43.3865C438.688 40.9962 438.841 39.0655 438.29 37.5946C437.799 36.1236 436.696 35.3881 434.98 35.3881C433.631 35.3881 432.344 35.8784 431.119 36.8591C429.954 37.8397 428.851 39.372 427.809 41.4559L426.062 44.6736H422.477L424.591 40.7204C426.614 36.9204 428.851 34.1317 431.302 32.3542C433.815 30.5768 436.727 29.6881 440.036 29.6881C443.162 29.6881 445.644 30.4236 447.483 31.8945C449.322 33.3042 450.486 35.2655 450.977 37.7784C451.467 40.2301 451.099 43.0801 449.873 46.3285L442.886 66.0946C442.028 68.4849 441.875 70.4156 442.427 71.8866C442.978 73.3575 444.081 74.093 445.736 74.093C448.433 74.093 450.854 72.1011 452.999 68.1172L454.654 64.8995H458.24L456.217 68.7608C454.194 72.6221 451.927 75.4414 449.414 77.2188C446.901 78.935 443.99 79.793 440.68 79.793ZM447.483 21.5978C445.338 21.5978 443.56 20.9848 442.151 19.759C440.802 18.4719 440.128 16.8171 440.128 14.7945C440.128 12.5881 440.956 10.7493 442.61 9.27837C444.265 7.74611 446.257 6.97998 448.586 6.97998C450.731 6.97998 452.478 7.62353 453.827 8.91063C455.236 10.1364 455.941 11.7606 455.941 13.7832C455.941 15.9897 455.114 17.859 453.459 19.3913C451.865 20.8623 449.873 21.5978 447.483 21.5978Z" fill="#AE8956"/>
<path d="M406.692 79.7925C403.627 79.7925 401.175 79.1183 399.337 77.7699C397.559 76.3602 396.456 74.4296 396.027 71.9779C395.598 69.465 395.843 66.5537 396.763 63.244L408.438 21.4133C409.113 19.1456 409.296 17.3988 408.99 16.173C408.745 14.9472 407.887 14.0891 406.416 13.5988C404.945 13.1085 402.738 12.8326 399.796 12.7714L400.808 9.18586C405.956 9.12457 410.584 8.78748 414.69 8.17457C418.796 7.56167 422.535 6.64231 425.906 5.4165L408.806 66.186C408.132 68.6376 408.04 70.5683 408.53 71.9779C409.021 73.3876 410.093 74.0924 411.748 74.0924C413.096 74.0924 414.353 73.6021 415.517 72.6215C416.743 71.6408 417.877 70.1392 418.919 68.1166L420.666 64.8989H424.251L422.137 68.7602C420.911 71.0892 419.532 73.0812 418 74.736C416.467 76.3908 414.782 77.6473 412.943 78.5054C411.104 79.3634 409.021 79.7925 406.692 79.7925Z" fill="#AE8956"/>
<path d="M361.589 79.7924C355.951 79.7924 351.568 78.1682 348.442 74.9199C345.378 71.6102 343.846 66.9827 343.846 61.0376C343.846 56.8085 344.581 52.8246 346.052 49.0859C347.584 45.2859 349.699 41.9456 352.396 39.0649C355.093 36.123 358.188 33.8246 361.681 32.1698C365.175 30.5149 368.913 29.6875 372.897 29.6875C378.536 29.6875 382.918 31.3423 386.044 34.652C389.17 37.9617 390.733 42.5891 390.733 48.5343C390.733 52.7634 389.967 56.7779 388.435 60.5779C386.902 64.3166 384.788 67.6263 382.091 70.5069C379.394 73.3876 376.299 75.6553 372.805 77.3102C369.312 78.965 365.573 79.7924 361.589 79.7924ZM362.325 76.2069C363.857 76.2069 365.359 75.6247 366.83 74.4602C368.362 73.2344 369.772 71.5795 371.059 69.4956C372.407 67.4118 373.602 65.0521 374.644 62.4166C375.686 59.7198 376.483 56.8698 377.034 53.8666C377.586 50.8021 377.862 47.7375 377.862 44.673C377.862 40.9343 377.372 38.1149 376.391 36.2149C375.472 34.2536 374.062 33.273 372.162 33.273C370.63 33.273 369.097 33.8859 367.565 35.1117C366.094 36.2762 364.684 37.9004 363.336 39.9843C362.049 42.0682 360.884 44.4585 359.843 47.1553C358.862 49.8521 358.065 52.7327 357.452 55.7972C356.901 58.8005 356.625 61.8037 356.625 64.8069C356.625 68.6069 357.115 71.4569 358.096 73.3569C359.076 75.2569 360.486 76.2069 362.325 76.2069Z" fill="#AE8956"/>
<path d="M297.915 100.479C294.85 100.479 292.491 99.927 290.836 98.8238C289.181 97.7819 288.354 96.3109 288.354 94.4109C288.354 92.8173 288.905 91.4996 290.008 90.4576C291.05 89.477 292.399 88.9867 294.054 88.9867C295.402 88.9867 296.566 89.2931 297.547 89.906C298.528 90.5189 299.416 91.2238 300.213 92.0206C300.949 92.8786 301.654 93.6141 302.328 94.227C303.002 94.9012 303.737 95.2383 304.534 95.2383C305.699 95.2383 306.679 94.5335 307.476 93.1238C308.334 91.7141 309.131 89.5689 309.866 86.6883L323.565 30.5156C325.526 22.6704 328.591 16.7252 332.758 12.6801C336.926 8.63489 342.35 6.6123 349.031 6.6123C353.321 6.6123 356.662 7.40908 359.052 9.00263C361.442 10.5349 362.638 12.7107 362.638 15.5301C362.638 17.9204 361.81 19.9736 360.155 21.6898C358.5 23.4059 356.447 24.264 353.996 24.264C352.708 24.264 351.667 23.9575 350.87 23.3446C350.134 22.7317 349.767 21.9043 349.767 20.8623C349.767 19.7591 350.073 18.7172 350.686 17.7365C351.299 16.6946 351.881 15.7139 352.433 14.7946C353.046 13.8752 353.352 12.9865 353.352 12.1284C353.352 10.7188 352.218 10.0139 349.95 10.0139C347.008 10.0139 344.557 11.2397 342.596 13.6914C340.696 16.143 339.163 19.7898 337.999 24.6317L326.323 72.0705C324.913 77.8318 322.829 82.8576 320.071 87.148C317.375 91.4383 314.157 94.7173 310.418 96.9851C306.679 99.3141 302.512 100.479 297.915 100.479ZM312.165 34.5608L313.176 30.9753H348.755L347.836 34.5608H312.165Z" fill="#AE8956"/>
<path d="M73.6295 5.2955C62.8696 -0.032021 50.575 -1.39248 38.9106 1.45367C27.2462 4.29981 16.9599 11.1701 9.863 20.8547C2.76607 30.5393 -0.686462 42.4174 0.113332 54.3973C0.913127 66.3773 5.91396 77.6909 14.2353 86.3462C22.5566 95.0015 33.6649 100.443 45.6041 101.714C57.5433 102.984 69.5479 100.001 79.5042 93.2909C89.4605 86.5803 96.7299 76.5722 100.033 65.0288C103.335 53.4854 102.459 41.1468 97.5593 30.1856L78.9451 38.5071C81.8863 45.0861 82.412 52.4917 80.4297 59.4202C78.4474 66.3486 74.0842 72.3555 68.1084 76.3832C62.1326 80.4109 54.9273 82.2012 47.7614 81.4387C40.5954 80.6762 33.9282 77.41 28.9337 72.215C23.9392 67.0201 20.9376 60.2295 20.4576 53.0391C19.9775 45.8487 22.0498 38.7194 26.3094 32.9067C30.569 27.0939 36.7429 22.9703 43.7439 21.2621C50.7449 19.5538 58.1242 20.3704 64.5824 23.568L73.6295 5.2955Z" fill="#CB2743"/>
<path d="M83.429 2.36388C92.5029 4.22674 100.841 13.4142 100.841 21.4972L72.0334 29.8823C75.4877 33.0917 69.5548 27.5556 72.0334 29.8823L83.429 2.36388Z" fill="#AE8956"/>
<path d="M71.7529 51.0002C71.7529 62.4601 62.4628 71.7502 51.0029 71.7502C39.543 71.7502 30.2529 62.4601 30.2529 51.0002C30.2529 39.5403 39.543 30.2502 51.0029 30.2502C62.4628 30.2502 71.7529 39.5403 71.7529 51.0002Z" fill="#AE8956"/>
</svg>
