<svg width="111" height="102" viewBox="0 0 111 102" fill="none" xmlns="http://www.w3.org/2000/svg">
<path d="M73.6295 5.2955C62.8696 -0.032021 50.575 -1.39248 38.9106 1.45367C27.2462 4.29981 16.9599 11.1701 9.863 20.8547C2.76607 30.5393 -0.686462 42.4174 0.113332 54.3973C0.913127 66.3773 5.91396 77.6909 14.2353 86.3462C22.5566 95.0015 33.6649 100.443 45.6041 101.714C57.5433 102.984 69.5479 100.001 79.5042 93.2909C89.4605 86.5803 96.7299 76.5722 100.033 65.0288C103.335 53.4854 102.459 41.1468 97.5593 30.1856L78.9451 38.5071C81.8863 45.0861 82.412 52.4917 80.4297 59.4202C78.4474 66.3486 74.0842 72.3555 68.1084 76.3832C62.1326 80.4109 54.9273 82.2012 47.7614 81.4387C40.5954 80.6762 33.9282 77.41 28.9337 72.215C23.9392 67.0201 20.9376 60.2295 20.4576 53.0391C19.9775 45.8487 22.0498 38.7194 26.3094 32.9067C30.569 27.0939 36.7429 22.9703 43.7439 21.2621C50.7449 19.5538 58.1242 20.3704 64.5824 23.568L73.6295 5.2955Z" fill="#CB2743"/>
<path d="M83.429 2.36388C92.5029 4.22674 100.841 13.4142 100.841 21.4972L72.0334 29.8823C75.4877 33.0917 69.5548 27.5556 72.0334 29.8823L83.429 2.36388Z" fill="#AE8956"/>
<path d="M71.7529 51.0002C71.7529 62.4601 62.4628 71.7502 51.0029 71.7502C39.543 71.7502 30.2529 62.4601 30.2529 51.0002C30.2529 39.5403 39.543 30.2502 51.0029 30.2502C62.4628 30.2502 71.7529 39.5403 71.7529 51.0002Z" fill="#AE8956"/>
</svg>
